<svg width="762" height="763" viewBox="0 0 762 763" fill="none" xmlns="http://www.w3.org/2000/svg">
<g opacity="0.08" clip-path="url(#clip0_35_6571)">
<mask id="mask0_35_6571" style="mask-type:alpha" maskUnits="userSpaceOnUse" x="-875" y="-550" width="2774" height="1602">
<rect width="40" height="40" transform="matrix(0.866044 0.499967 -0.866044 0.499967 789.134 -29.0308)" stroke="white"/>
<rect width="40" height="40" transform="matrix(0.866044 0.499967 -0.866044 0.499967 719.851 -29.0308)" stroke="white"/>
<rect width="40" height="40" transform="matrix(0.866044 0.499967 -0.866044 0.499967 754.493 -9.03209)" stroke="white"/>
<rect width="40" height="40" transform="matrix(0.866044 0.499967 -0.866044 0.499967 789.134 10.9666)" stroke="white"/>
<rect width="40" height="40" transform="matrix(0.866044 0.499967 -0.866044 0.499967 650.567 -29.0308)" stroke="white"/>
<rect width="40" height="40" transform="matrix(0.866044 0.499967 -0.866044 0.499967 685.209 -9.0321)" stroke="white"/>
<rect width="40" height="40" transform="matrix(0.866044 0.499967 -0.866044 0.499967 719.851 10.9666)" stroke="white"/>
<rect width="40" height="40" transform="matrix(0.866044 0.499967 -0.866044 0.499967 754.493 30.9653)" stroke="white"/>
<rect width="40" height="40" transform="matrix(0.866044 0.499967 -0.866044 0.499967 789.134 50.964)" stroke="white"/>
<rect width="40" height="40" transform="matrix(0.866044 0.499967 -0.866044 0.499967 581.284 -29.0308)" stroke="white"/>
<rect width="40" height="40" transform="matrix(0.866044 0.499967 -0.866044 0.499967 615.925 -9.0321)" stroke="white"/>
<rect width="40" height="40" transform="matrix(0.866044 0.499967 -0.866044 0.499967 650.567 10.9666)" stroke="white"/>
<rect width="40" height="40" transform="matrix(0.866044 0.499967 -0.866044 0.499967 685.209 30.9653)" stroke="white"/>
<rect width="40" height="40" transform="matrix(0.866044 0.499967 -0.866044 0.499967 719.851 50.964)" stroke="white"/>
<rect width="40" height="40" transform="matrix(0.866044 0.499967 -0.866044 0.499967 754.493 70.9627)" stroke="white"/>
<rect width="40" height="40" transform="matrix(0.866044 0.499967 -0.866044 0.499967 789.134 90.9614)" stroke="white"/>
<rect width="40" height="40" transform="matrix(0.866044 0.499967 -0.866044 0.499967 512 -29.0308)" stroke="white"/>
<rect width="40" height="40" transform="matrix(0.866044 0.499967 -0.866044 0.499967 546.642 -9.03211)" stroke="white"/>
<rect width="40" height="40" transform="matrix(0.866044 0.499967 -0.866044 0.499967 581.284 10.9666)" stroke="white"/>
<rect width="40" height="40" transform="matrix(0.866044 0.499967 -0.866044 0.499967 615.925 30.9653)" stroke="white"/>
<rect width="40" height="40" transform="matrix(0.866044 0.499967 -0.866044 0.499967 650.567 50.964)" stroke="white"/>
<rect width="40" height="40" transform="matrix(0.866044 0.499967 -0.866044 0.499967 685.209 70.9627)" stroke="white"/>
<rect width="40" height="40" transform="matrix(0.866044 0.499967 -0.866044 0.499967 719.851 90.9614)" stroke="white"/>
<rect width="40" height="40" transform="matrix(0.866044 0.499967 -0.866044 0.499967 754.493 110.96)" stroke="white"/>
<rect width="40" height="40" transform="matrix(0.866044 0.499967 -0.866044 0.499967 789.134 130.959)" stroke="white"/>
<rect width="40" height="40" transform="matrix(0.866044 0.499967 -0.866044 0.499967 442.717 -29.0308)" stroke="white"/>
<rect width="40" height="40" transform="matrix(0.866044 0.499967 -0.866044 0.499967 477.358 -9.03209)" stroke="white"/>
<rect width="40" height="40" transform="matrix(0.866044 0.499967 -0.866044 0.499967 512 10.9666)" stroke="white"/>
<rect width="40" height="40" transform="matrix(0.866044 0.499967 -0.866044 0.499967 546.642 30.9653)" stroke="white"/>
<rect width="40" height="40" transform="matrix(0.866044 0.499967 -0.866044 0.499967 581.284 50.964)" stroke="white"/>
<rect width="40" height="40" transform="matrix(0.866044 0.499967 -0.866044 0.499967 615.925 70.9627)" stroke="white"/>
<rect width="40" height="40" transform="matrix(0.866044 0.499967 -0.866044 0.499967 650.567 90.9614)" stroke="white"/>
<rect width="40" height="40" transform="matrix(0.866044 0.499967 -0.866044 0.499967 685.209 110.96)" stroke="white"/>
<rect width="40" height="40" transform="matrix(0.866044 0.499967 -0.866044 0.499967 719.851 130.959)" stroke="white"/>
<rect width="40" height="40" transform="matrix(0.866044 0.499967 -0.866044 0.499967 754.493 150.957)" stroke="white"/>
<rect width="40" height="40" transform="matrix(0.866044 0.499967 -0.866044 0.499967 789.134 170.956)" stroke="white"/>
<rect width="40" height="40" transform="matrix(0.866044 0.499967 -0.866044 0.499967 373.433 -29.0308)" stroke="white"/>
<rect width="40" height="40" transform="matrix(0.866044 0.499967 -0.866044 0.499967 408.075 -9.0321)" stroke="white"/>
<rect width="40" height="40" transform="matrix(0.866044 0.499967 -0.866044 0.499967 442.717 10.9666)" stroke="white"/>
<rect width="40" height="40" transform="matrix(0.866044 0.499967 -0.866044 0.499967 477.358 30.9653)" stroke="white"/>
<rect width="40" height="40" transform="matrix(0.866044 0.499967 -0.866044 0.499967 512 50.964)" stroke="white"/>
<rect width="40" height="40" transform="matrix(0.866044 0.499967 -0.866044 0.499967 546.642 70.9627)" stroke="white"/>
<rect width="40" height="40" transform="matrix(0.866044 0.499967 -0.866044 0.499967 581.284 90.9614)" stroke="white"/>
<rect width="40" height="40" transform="matrix(0.866044 0.499967 -0.866044 0.499967 615.925 110.96)" stroke="white"/>
<rect width="40" height="40" transform="matrix(0.866044 0.499967 -0.866044 0.499967 650.567 130.959)" stroke="white"/>
<rect width="40" height="40" transform="matrix(0.866044 0.499967 -0.866044 0.499967 685.209 150.957)" stroke="white"/>
<rect width="40" height="40" transform="matrix(0.866044 0.499967 -0.866044 0.499967 719.851 170.956)" stroke="white"/>
<rect width="40" height="40" transform="matrix(0.866044 0.499967 -0.866044 0.499967 754.493 190.955)" stroke="white"/>
<rect width="40" height="40" transform="matrix(0.866044 0.499967 -0.866044 0.499967 789.134 210.954)" stroke="white"/>
<rect width="40" height="40" transform="matrix(0.866044 0.499967 -0.866044 0.499967 304.15 -29.0308)" stroke="white"/>
<rect width="40" height="40" transform="matrix(0.866044 0.499967 -0.866044 0.499967 338.791 -9.03211)" stroke="white"/>
<rect width="40" height="40" transform="matrix(0.866044 0.499967 -0.866044 0.499967 373.433 10.9666)" stroke="white"/>
<rect width="40" height="40" transform="matrix(0.866044 0.499967 -0.866044 0.499967 408.075 30.9653)" stroke="white"/>
<rect width="40" height="40" transform="matrix(0.866044 0.499967 -0.866044 0.499967 442.717 50.964)" stroke="white"/>
<rect width="40" height="40" transform="matrix(0.866044 0.499967 -0.866044 0.499967 477.358 70.9627)" stroke="white"/>
<rect width="40" height="40" transform="matrix(0.866044 0.499967 -0.866044 0.499967 512 90.9614)" stroke="white"/>
<rect width="40" height="40" transform="matrix(0.866044 0.499967 -0.866044 0.499967 546.642 110.96)" stroke="white"/>
<rect width="40" height="40" transform="matrix(0.866044 0.499967 -0.866044 0.499967 581.284 130.959)" stroke="white"/>
<rect width="40" height="40" transform="matrix(0.866044 0.499967 -0.866044 0.499967 615.925 150.957)" stroke="white"/>
<rect width="40" height="40" transform="matrix(0.866044 0.499967 -0.866044 0.499967 650.567 170.956)" stroke="white"/>
<rect width="40" height="40" transform="matrix(0.866044 0.499967 -0.866044 0.499967 685.209 190.955)" stroke="white"/>
<rect width="40" height="40" transform="matrix(0.866044 0.499967 -0.866044 0.499967 719.851 210.954)" stroke="white"/>
<rect width="40" height="40" transform="matrix(0.866044 0.499967 -0.866044 0.499967 754.493 230.952)" stroke="white"/>
<rect width="40" height="40" transform="matrix(0.866044 0.499967 -0.866044 0.499967 789.134 250.951)" stroke="white"/>
<rect width="40" height="40" transform="matrix(0.866044 0.499967 -0.866044 0.499967 234.866 -29.0308)" stroke="white"/>
<rect width="40" height="40" transform="matrix(0.866044 0.499967 -0.866044 0.499967 269.508 -9.0321)" stroke="white"/>
<rect width="40" height="40" transform="matrix(0.866044 0.499967 -0.866044 0.499967 304.15 10.9666)" stroke="white"/>
<rect width="40" height="40" transform="matrix(0.866044 0.499967 -0.866044 0.499967 338.791 30.9653)" stroke="white"/>
<rect width="40" height="40" transform="matrix(0.866044 0.499967 -0.866044 0.499967 373.433 50.964)" stroke="white"/>
<rect width="40" height="40" transform="matrix(0.866044 0.499967 -0.866044 0.499967 408.075 70.9627)" stroke="white"/>
<rect width="40" height="40" transform="matrix(0.866044 0.499967 -0.866044 0.499967 442.717 90.9614)" stroke="white"/>
<rect width="40" height="40" transform="matrix(0.866044 0.499967 -0.866044 0.499967 477.358 110.96)" stroke="white"/>
<rect width="40" height="40" transform="matrix(0.866044 0.499967 -0.866044 0.499967 512 130.959)" stroke="white"/>
<rect width="40" height="40" transform="matrix(0.866044 0.499967 -0.866044 0.499967 546.642 150.957)" stroke="white"/>
<rect width="40" height="40" transform="matrix(0.866044 0.499967 -0.866044 0.499967 581.284 170.956)" stroke="white"/>
<rect width="40" height="40" transform="matrix(0.866044 0.499967 -0.866044 0.499967 615.925 190.955)" stroke="white"/>
<rect width="40" height="40" transform="matrix(0.866044 0.499967 -0.866044 0.499967 650.567 210.954)" stroke="white"/>
<rect width="40" height="40" transform="matrix(0.866044 0.499967 -0.866044 0.499967 685.209 230.952)" stroke="white"/>
<rect width="40" height="40" transform="matrix(0.866044 0.499967 -0.866044 0.499967 719.851 250.951)" stroke="white"/>
<rect width="40" height="40" transform="matrix(0.866044 0.499967 -0.866044 0.499967 754.493 270.95)" stroke="white"/>
<rect width="40" height="40" transform="matrix(0.866044 0.499967 -0.866044 0.499967 789.134 290.948)" stroke="white"/>
<rect width="40" height="40" transform="matrix(0.866044 0.499967 -0.866044 0.499967 165.582 -29.0308)" stroke="white"/>
<rect width="40" height="40" transform="matrix(0.866044 0.499967 -0.866044 0.499967 200.224 -9.03209)" stroke="white"/>
<rect width="40" height="40" transform="matrix(0.866044 0.499967 -0.866044 0.499967 234.866 10.9666)" stroke="white"/>
<rect width="40" height="40" transform="matrix(0.866044 0.499967 -0.866044 0.499967 269.508 30.9653)" stroke="white"/>
<rect width="40" height="40" transform="matrix(0.866044 0.499967 -0.866044 0.499967 304.149 50.964)" stroke="white"/>
<rect width="40" height="40" transform="matrix(0.866044 0.499967 -0.866044 0.499967 338.791 70.9627)" stroke="white"/>
<rect width="40" height="40" transform="matrix(0.866044 0.499967 -0.866044 0.499967 373.433 90.9614)" stroke="white"/>
<rect width="40" height="40" transform="matrix(0.866044 0.499967 -0.866044 0.499967 408.075 110.96)" stroke="white"/>
<rect width="40" height="40" transform="matrix(0.866044 0.499967 -0.866044 0.499967 442.717 130.959)" stroke="white"/>
<rect width="40" height="40" transform="matrix(0.866044 0.499967 -0.866044 0.499967 477.358 150.957)" stroke="white"/>
<rect width="40" height="40" transform="matrix(0.866044 0.499967 -0.866044 0.499967 512 170.956)" stroke="white"/>
<rect width="40" height="40" transform="matrix(0.866044 0.499967 -0.866044 0.499967 546.642 190.955)" stroke="white"/>
<rect width="40" height="40" transform="matrix(0.866044 0.499967 -0.866044 0.499967 581.284 210.954)" stroke="white"/>
<rect width="40" height="40" transform="matrix(0.866044 0.499967 -0.866044 0.499967 615.925 230.952)" stroke="white"/>
<rect width="40" height="40" transform="matrix(0.866044 0.499967 -0.866044 0.499967 650.567 250.951)" stroke="white"/>
<rect width="40" height="40" transform="matrix(0.866044 0.499967 -0.866044 0.499967 685.209 270.95)" stroke="white"/>
<rect width="40" height="40" transform="matrix(0.866044 0.499967 -0.866044 0.499967 719.851 290.948)" stroke="white"/>
<rect width="40" height="40" transform="matrix(0.866044 0.499967 -0.866044 0.499967 754.493 310.947)" stroke="white"/>
<rect width="40" height="40" transform="matrix(0.866044 0.499967 -0.866044 0.499967 789.134 330.946)" stroke="white"/>
<rect width="40" height="40" transform="matrix(0.866044 0.499967 -0.866044 0.499967 96.2988 -29.0308)" stroke="white"/>
<rect width="40" height="40" transform="matrix(0.866044 0.499967 -0.866044 0.499967 130.941 -9.0321)" stroke="white"/>
<rect width="40" height="40" transform="matrix(0.866044 0.499967 -0.866044 0.499967 165.582 10.9666)" stroke="white"/>
<rect width="40" height="40" transform="matrix(0.866044 0.499967 -0.866044 0.499967 200.224 30.9653)" stroke="white"/>
<rect width="40" height="40" transform="matrix(0.866044 0.499967 -0.866044 0.499967 234.866 50.964)" stroke="white"/>
<rect width="40" height="40" transform="matrix(0.866044 0.499967 -0.866044 0.499967 269.508 70.9627)" stroke="white"/>
<rect width="40" height="40" transform="matrix(0.866044 0.499967 -0.866044 0.499967 304.149 90.9614)" stroke="white"/>
<rect width="40" height="40" transform="matrix(0.866044 0.499967 -0.866044 0.499967 338.791 110.96)" stroke="white"/>
<rect width="40" height="40" transform="matrix(0.866044 0.499967 -0.866044 0.499967 373.433 130.959)" stroke="white"/>
<rect width="40" height="40" transform="matrix(0.866044 0.499967 -0.866044 0.499967 408.075 150.957)" stroke="white"/>
<rect width="40" height="40" transform="matrix(0.866044 0.499967 -0.866044 0.499967 442.717 170.956)" stroke="white"/>
<rect width="40" height="40" transform="matrix(0.866044 0.499967 -0.866044 0.499967 477.358 190.955)" stroke="white"/>
<rect width="40" height="40" transform="matrix(0.866044 0.499967 -0.866044 0.499967 512 210.954)" stroke="white"/>
<rect width="40" height="40" transform="matrix(0.866044 0.499967 -0.866044 0.499967 546.642 230.952)" stroke="white"/>
<rect width="40" height="40" transform="matrix(0.866044 0.499967 -0.866044 0.499967 581.284 250.951)" stroke="white"/>
<rect width="40" height="40" transform="matrix(0.866044 0.499967 -0.866044 0.499967 615.925 270.95)" stroke="white"/>
<rect width="40" height="40" transform="matrix(0.866044 0.499967 -0.866044 0.499967 650.567 290.948)" stroke="white"/>
<rect width="40" height="40" transform="matrix(0.866044 0.499967 -0.866044 0.499967 685.209 310.947)" stroke="white"/>
<rect width="40" height="40" transform="matrix(0.866044 0.499967 -0.866044 0.499967 719.851 330.946)" stroke="white"/>
<rect width="40" height="40" transform="matrix(0.866044 0.499967 -0.866044 0.499967 754.493 350.944)" stroke="white"/>
<rect width="40" height="40" transform="matrix(0.866044 0.499967 -0.866044 0.499967 789.134 370.943)" stroke="white"/>
<rect width="40" height="40" transform="matrix(0.866044 0.499967 -0.866044 0.499967 27.0153 -29.0308)" stroke="white"/>
<rect width="40" height="40" transform="matrix(0.866044 0.499967 -0.866044 0.499967 61.6571 -9.03209)" stroke="white"/>
<rect width="40" height="40" transform="matrix(0.866044 0.499967 -0.866044 0.499967 96.2989 10.9666)" stroke="white"/>
<rect width="40" height="40" transform="matrix(0.866044 0.499967 -0.866044 0.499967 130.941 30.9653)" stroke="white"/>
<rect width="40" height="40" transform="matrix(0.866044 0.499967 -0.866044 0.499967 165.582 50.964)" stroke="white"/>
<rect width="40" height="40" transform="matrix(0.866044 0.499967 -0.866044 0.499967 200.224 70.9627)" stroke="white"/>
<rect width="40" height="40" transform="matrix(0.866044 0.499967 -0.866044 0.499967 234.866 90.9614)" stroke="white"/>
<rect width="40" height="40" transform="matrix(0.866044 0.499967 -0.866044 0.499967 269.508 110.96)" stroke="white"/>
<rect width="40" height="40" transform="matrix(0.866044 0.499967 -0.866044 0.499967 304.149 130.959)" stroke="white"/>
<rect width="40" height="40" transform="matrix(0.866044 0.499967 -0.866044 0.499967 338.791 150.957)" stroke="white"/>
<rect width="40" height="40" transform="matrix(0.866044 0.499967 -0.866044 0.499967 373.433 170.956)" stroke="white"/>
<rect width="40" height="40" transform="matrix(0.866044 0.499967 -0.866044 0.499967 408.075 190.955)" stroke="white"/>
<rect width="40" height="40" transform="matrix(0.866044 0.499967 -0.866044 0.499967 442.717 210.954)" stroke="white"/>
<rect width="40" height="40" transform="matrix(0.866044 0.499967 -0.866044 0.499967 477.358 230.952)" stroke="white"/>
<rect width="40" height="40" transform="matrix(0.866044 0.499967 -0.866044 0.499967 512 250.951)" stroke="white"/>
<rect width="40" height="40" transform="matrix(0.866044 0.499967 -0.866044 0.499967 546.642 270.95)" stroke="white"/>
<rect width="40" height="40" transform="matrix(0.866044 0.499967 -0.866044 0.499967 581.284 290.948)" stroke="white"/>
<rect width="40" height="40" transform="matrix(0.866044 0.499967 -0.866044 0.499967 615.925 310.947)" stroke="white"/>
<rect width="40" height="40" transform="matrix(0.866044 0.499967 -0.866044 0.499967 650.567 330.946)" stroke="white"/>
<rect width="40" height="40" transform="matrix(0.866044 0.499967 -0.866044 0.499967 685.209 350.944)" stroke="white"/>
<rect width="40" height="40" transform="matrix(0.866044 0.499967 -0.866044 0.499967 719.851 370.943)" stroke="white"/>
<rect width="40" height="40" transform="matrix(0.866044 0.499967 -0.866044 0.499967 754.493 390.942)" stroke="white"/>
<rect width="40" height="40" transform="matrix(0.866044 0.499967 -0.866044 0.499967 789.134 410.941)" stroke="white"/>
<rect width="40" height="40" transform="matrix(0.866044 0.499967 -0.866044 0.499967 -7.62646 -9.0321)" stroke="white"/>
<rect width="40" height="40" transform="matrix(0.866044 0.499967 -0.866044 0.499967 27.0153 10.9666)" stroke="white"/>
<rect width="40" height="40" transform="matrix(0.866044 0.499967 -0.866044 0.499967 61.6571 30.9653)" stroke="white"/>
<rect width="40" height="40" transform="matrix(0.866044 0.499967 -0.866044 0.499967 96.2989 50.964)" stroke="white"/>
<rect width="40" height="40" transform="matrix(0.866044 0.499967 -0.866044 0.499967 130.941 70.9627)" stroke="white"/>
<rect width="40" height="40" transform="matrix(0.866044 0.499967 -0.866044 0.499967 165.582 90.9614)" stroke="white"/>
<rect width="40" height="40" transform="matrix(0.866044 0.499967 -0.866044 0.499967 200.224 110.96)" stroke="white"/>
<rect width="40" height="40" transform="matrix(0.866044 0.499967 -0.866044 0.499967 234.866 130.959)" stroke="white"/>
<rect width="40" height="40" transform="matrix(0.866044 0.499967 -0.866044 0.499967 269.508 150.957)" stroke="white"/>
<rect width="40" height="40" transform="matrix(0.866044 0.499967 -0.866044 0.499967 304.149 170.956)" stroke="white"/>
<rect width="40" height="40" transform="matrix(0.866044 0.499967 -0.866044 0.499967 338.791 190.955)" stroke="white"/>
<rect width="40" height="40" transform="matrix(0.866044 0.499967 -0.866044 0.499967 373.433 210.954)" stroke="white"/>
<rect width="40" height="40" transform="matrix(0.866044 0.499967 -0.866044 0.499967 408.075 230.952)" stroke="white"/>
<rect width="40" height="40" transform="matrix(0.866044 0.499967 -0.866044 0.499967 442.717 250.951)" stroke="white"/>
<rect width="40" height="40" transform="matrix(0.866044 0.499967 -0.866044 0.499967 477.358 270.95)" stroke="white"/>
<rect width="40" height="40" transform="matrix(0.866044 0.499967 -0.866044 0.499967 512 290.948)" stroke="white"/>
<rect width="40" height="40" transform="matrix(0.866044 0.499967 -0.866044 0.499967 546.642 310.947)" stroke="white"/>
<rect width="40" height="40" transform="matrix(0.866044 0.499967 -0.866044 0.499967 581.284 330.946)" stroke="white"/>
<rect width="40" height="40" transform="matrix(0.866044 0.499967 -0.866044 0.499967 615.925 350.944)" stroke="white"/>
<rect width="40" height="40" transform="matrix(0.866044 0.499967 -0.866044 0.499967 650.567 370.943)" stroke="white"/>
<rect width="40" height="40" transform="matrix(0.866044 0.499967 -0.866044 0.499967 685.209 390.942)" stroke="white"/>
<rect width="40" height="40" transform="matrix(0.866044 0.499967 -0.866044 0.499967 719.851 410.941)" stroke="white"/>
<rect width="40" height="40" transform="matrix(0.866044 0.499967 -0.866044 0.499967 754.493 430.939)" stroke="white"/>
<rect width="40" height="40" transform="matrix(0.866044 0.499967 -0.866044 0.499967 789.134 450.938)" stroke="white"/>
<rect width="40" height="40" transform="matrix(0.866044 0.499967 -0.866044 0.499967 -7.62646 30.9653)" stroke="white"/>
<rect width="40" height="40" transform="matrix(0.866044 0.499967 -0.866044 0.499967 27.0153 50.964)" stroke="white"/>
<rect width="40" height="40" transform="matrix(0.866044 0.499967 -0.866044 0.499967 61.6571 70.9627)" stroke="white"/>
<rect width="40" height="40" transform="matrix(0.866044 0.499967 -0.866044 0.499967 96.2989 90.9614)" stroke="white"/>
<rect width="40" height="40" transform="matrix(0.866044 0.499967 -0.866044 0.499967 130.941 110.96)" stroke="white"/>
<rect width="40" height="40" transform="matrix(0.866044 0.499967 -0.866044 0.499967 165.582 130.959)" stroke="white"/>
<rect width="40" height="40" transform="matrix(0.866044 0.499967 -0.866044 0.499967 200.224 150.957)" stroke="white"/>
<rect width="40" height="40" transform="matrix(0.866044 0.499967 -0.866044 0.499967 234.866 170.956)" stroke="white"/>
<rect width="40" height="40" transform="matrix(0.866044 0.499967 -0.866044 0.499967 269.508 190.955)" stroke="white"/>
<rect width="40" height="40" transform="matrix(0.866044 0.499967 -0.866044 0.499967 304.15 210.954)" stroke="white"/>
<rect width="40" height="40" transform="matrix(0.866044 0.499967 -0.866044 0.499967 338.791 230.952)" stroke="white"/>
<rect width="40" height="40" transform="matrix(0.866044 0.499967 -0.866044 0.499967 373.433 250.951)" stroke="white"/>
<rect width="40" height="40" transform="matrix(0.866044 0.499967 -0.866044 0.499967 408.075 270.95)" stroke="white"/>
<rect width="40" height="40" transform="matrix(0.866044 0.499967 -0.866044 0.499967 442.717 290.948)" stroke="white"/>
<rect width="40" height="40" transform="matrix(0.866044 0.499967 -0.866044 0.499967 477.358 310.947)" stroke="white"/>
<rect width="40" height="40" transform="matrix(0.866044 0.499967 -0.866044 0.499967 512 330.946)" stroke="white"/>
<rect width="40" height="40" transform="matrix(0.866044 0.499967 -0.866044 0.499967 546.642 350.944)" stroke="white"/>
<rect width="40" height="40" transform="matrix(0.866044 0.499967 -0.866044 0.499967 581.284 370.943)" stroke="white"/>
<rect width="40" height="40" transform="matrix(0.866044 0.499967 -0.866044 0.499967 615.925 390.942)" stroke="white"/>
<rect width="40" height="40" transform="matrix(0.866044 0.499967 -0.866044 0.499967 650.567 410.941)" stroke="white"/>
<rect width="40" height="40" transform="matrix(0.866044 0.499967 -0.866044 0.499967 685.209 430.939)" stroke="white"/>
<rect width="40" height="40" transform="matrix(0.866044 0.499967 -0.866044 0.499967 719.851 450.938)" stroke="white"/>
<rect width="40" height="40" transform="matrix(0.866044 0.499967 -0.866044 0.499967 754.493 470.937)" stroke="white"/>
<rect width="40" height="40" transform="matrix(0.866044 0.499967 -0.866044 0.499967 789.134 490.935)" stroke="white"/>
<rect width="40" height="40" transform="matrix(0.866044 0.499967 -0.866044 0.499967 -7.62646 70.9627)" stroke="white"/>
<rect width="40" height="40" transform="matrix(0.866044 0.499967 -0.866044 0.499967 27.0153 90.9614)" stroke="white"/>
<rect width="40" height="40" transform="matrix(0.866044 0.499967 -0.866044 0.499967 61.6571 110.96)" stroke="white"/>
<rect width="40" height="40" transform="matrix(0.866044 0.499967 -0.866044 0.499967 96.2989 130.959)" stroke="white"/>
<rect width="40" height="40" transform="matrix(0.866044 0.499967 -0.866044 0.499967 130.941 150.957)" stroke="white"/>
<rect width="40" height="40" transform="matrix(0.866044 0.499967 -0.866044 0.499967 165.582 170.956)" stroke="white"/>
<rect width="40" height="40" transform="matrix(0.866044 0.499967 -0.866044 0.499967 200.224 190.955)" stroke="white"/>
<rect width="40" height="40" transform="matrix(0.866044 0.499967 -0.866044 0.499967 234.866 210.954)" stroke="white"/>
<rect width="40" height="40" transform="matrix(0.866044 0.499967 -0.866044 0.499967 269.508 230.952)" stroke="white"/>
<rect width="40" height="40" transform="matrix(0.866044 0.499967 -0.866044 0.499967 304.149 250.951)" stroke="white"/>
<rect width="40" height="40" transform="matrix(0.866044 0.499967 -0.866044 0.499967 338.791 270.95)" stroke="white"/>
<rect width="40" height="40" transform="matrix(0.866044 0.499967 -0.866044 0.499967 373.433 290.948)" stroke="white"/>
<rect width="40" height="40" transform="matrix(0.866044 0.499967 -0.866044 0.499967 408.075 310.947)" stroke="white"/>
<rect width="40" height="40" transform="matrix(0.866044 0.499967 -0.866044 0.499967 442.717 330.946)" stroke="white"/>
<rect width="40" height="40" transform="matrix(0.866044 0.499967 -0.866044 0.499967 477.358 350.944)" stroke="white"/>
<rect width="40" height="40" transform="matrix(0.866044 0.499967 -0.866044 0.499967 512 370.943)" stroke="white"/>
<rect width="40" height="40" transform="matrix(0.866044 0.499967 -0.866044 0.499967 546.642 390.942)" stroke="white"/>
<rect width="40" height="40" transform="matrix(0.866044 0.499967 -0.866044 0.499967 581.284 410.941)" stroke="white"/>
<rect width="40" height="40" transform="matrix(0.866044 0.499967 -0.866044 0.499967 615.925 430.939)" stroke="white"/>
<rect width="40" height="40" transform="matrix(0.866044 0.499967 -0.866044 0.499967 650.567 450.938)" stroke="white"/>
<rect width="40" height="40" transform="matrix(0.866044 0.499967 -0.866044 0.499967 685.209 470.937)" stroke="white"/>
<rect width="40" height="40" transform="matrix(0.866044 0.499967 -0.866044 0.499967 719.851 490.935)" stroke="white"/>
<rect width="40" height="40" transform="matrix(0.866044 0.499967 -0.866044 0.499967 754.493 510.934)" stroke="white"/>
<rect width="40" height="40" transform="matrix(0.866044 0.499967 -0.866044 0.499967 789.134 530.933)" stroke="white"/>
<rect width="40" height="40" transform="matrix(0.866044 0.499967 -0.866044 0.499967 -7.62646 110.96)" stroke="white"/>
<rect width="40" height="40" transform="matrix(0.866044 0.499967 -0.866044 0.499967 27.0153 130.959)" stroke="white"/>
<rect width="40" height="40" transform="matrix(0.866044 0.499967 -0.866044 0.499967 61.6571 150.957)" stroke="white"/>
<rect width="40" height="40" transform="matrix(0.866044 0.499967 -0.866044 0.499967 96.2988 170.956)" stroke="white"/>
<rect width="40" height="40" transform="matrix(0.866044 0.499967 -0.866044 0.499967 130.941 190.955)" stroke="white"/>
<rect width="40" height="40" transform="matrix(0.866044 0.499967 -0.866044 0.499967 165.582 210.954)" stroke="white"/>
<rect width="40" height="40" transform="matrix(0.866044 0.499967 -0.866044 0.499967 200.224 230.952)" stroke="white"/>
<rect width="40" height="40" transform="matrix(0.866044 0.499967 -0.866044 0.499967 234.866 250.951)" stroke="white"/>
<rect width="40" height="40" transform="matrix(0.866044 0.499967 -0.866044 0.499967 269.508 270.95)" stroke="white"/>
<rect width="40" height="40" transform="matrix(0.866044 0.499967 -0.866044 0.499967 304.149 290.948)" stroke="white"/>
<rect width="40" height="40" transform="matrix(0.866044 0.499967 -0.866044 0.499967 338.791 310.947)" stroke="white"/>
<rect width="40" height="40" transform="matrix(0.866044 0.499967 -0.866044 0.499967 373.433 330.946)" stroke="white"/>
<rect width="40" height="40" transform="matrix(0.866044 0.499967 -0.866044 0.499967 408.075 350.944)" stroke="white"/>
<rect width="40" height="40" transform="matrix(0.866044 0.499967 -0.866044 0.499967 442.717 370.943)" stroke="white"/>
<rect width="40" height="40" transform="matrix(0.866044 0.499967 -0.866044 0.499967 477.358 390.942)" stroke="white"/>
<rect width="40" height="40" transform="matrix(0.866044 0.499967 -0.866044 0.499967 512 410.941)" stroke="white"/>
<rect width="40" height="40" transform="matrix(0.866044 0.499967 -0.866044 0.499967 546.642 430.939)" stroke="white"/>
<rect width="40" height="40" transform="matrix(0.866044 0.499967 -0.866044 0.499967 581.284 450.938)" stroke="white"/>
<rect width="40" height="40" transform="matrix(0.866044 0.499967 -0.866044 0.499967 615.925 470.937)" stroke="white"/>
<rect width="40" height="40" transform="matrix(0.866044 0.499967 -0.866044 0.499967 650.567 490.935)" stroke="white"/>
<rect width="40" height="40" transform="matrix(0.866044 0.499967 -0.866044 0.499967 685.209 510.934)" stroke="white"/>
<rect width="40" height="40" transform="matrix(0.866044 0.499967 -0.866044 0.499967 719.851 530.933)" stroke="white"/>
<rect width="40" height="40" transform="matrix(0.866044 0.499967 -0.866044 0.499967 754.493 550.931)" stroke="white"/>
<rect width="40" height="40" transform="matrix(0.866044 0.499967 -0.866044 0.499967 789.134 570.93)" stroke="white"/>
<rect width="40" height="40" transform="matrix(0.866044 0.499967 -0.866044 0.499967 -7.62646 150.957)" stroke="white"/>
<rect width="40" height="40" transform="matrix(0.866044 0.499967 -0.866044 0.499967 27.0153 170.956)" stroke="white"/>
<rect width="40" height="40" transform="matrix(0.866044 0.499967 -0.866044 0.499967 61.6571 190.955)" stroke="white"/>
<rect width="40" height="40" transform="matrix(0.866044 0.499967 -0.866044 0.499967 96.2989 210.954)" stroke="white"/>
<rect width="40" height="40" transform="matrix(0.866044 0.499967 -0.866044 0.499967 130.941 230.952)" stroke="white"/>
<rect width="40" height="40" transform="matrix(0.866044 0.499967 -0.866044 0.499967 165.582 250.951)" stroke="white"/>
<rect width="40" height="40" transform="matrix(0.866044 0.499967 -0.866044 0.499967 200.224 270.95)" stroke="white"/>
<rect width="40" height="40" transform="matrix(0.866044 0.499967 -0.866044 0.499967 234.866 290.948)" stroke="white"/>
<rect width="40" height="40" transform="matrix(0.866044 0.499967 -0.866044 0.499967 269.508 310.947)" stroke="white"/>
<rect width="40" height="40" transform="matrix(0.866044 0.499967 -0.866044 0.499967 304.149 330.946)" stroke="white"/>
<rect width="40" height="40" transform="matrix(0.866044 0.499967 -0.866044 0.499967 338.791 350.944)" stroke="white"/>
<rect width="40" height="40" transform="matrix(0.866044 0.499967 -0.866044 0.499967 373.433 370.943)" stroke="white"/>
<rect width="40" height="40" transform="matrix(0.866044 0.499967 -0.866044 0.499967 408.075 390.942)" stroke="white"/>
<rect width="40" height="40" transform="matrix(0.866044 0.499967 -0.866044 0.499967 442.717 410.941)" stroke="white"/>
<rect width="40" height="40" transform="matrix(0.866044 0.499967 -0.866044 0.499967 477.358 430.939)" stroke="white"/>
<rect width="40" height="40" transform="matrix(0.866044 0.499967 -0.866044 0.499967 512 450.938)" stroke="white"/>
<rect width="40" height="40" transform="matrix(0.866044 0.499967 -0.866044 0.499967 546.642 470.937)" stroke="white"/>
<rect width="40" height="40" transform="matrix(0.866044 0.499967 -0.866044 0.499967 581.284 490.935)" stroke="white"/>
<rect width="40" height="40" transform="matrix(0.866044 0.499967 -0.866044 0.499967 615.925 510.934)" stroke="white"/>
<rect width="40" height="40" transform="matrix(0.866044 0.499967 -0.866044 0.499967 650.567 530.933)" stroke="white"/>
<rect width="40" height="40" transform="matrix(0.866044 0.499967 -0.866044 0.499967 685.209 550.931)" stroke="white"/>
<rect width="40" height="40" transform="matrix(0.866044 0.499967 -0.866044 0.499967 719.851 570.93)" stroke="white"/>
<rect width="40" height="40" transform="matrix(0.866044 0.499967 -0.866044 0.499967 754.493 590.929)" stroke="white"/>
<rect width="40" height="40" transform="matrix(0.866044 0.499967 -0.866044 0.499967 789.134 610.927)" stroke="white"/>
<rect width="40" height="40" transform="matrix(0.866044 0.499967 -0.866044 0.499967 -7.62646 190.955)" stroke="white"/>
<rect width="40" height="40" transform="matrix(0.866044 0.499967 -0.866044 0.499967 27.0153 210.954)" stroke="white"/>
<rect width="40" height="40" transform="matrix(0.866044 0.499967 -0.866044 0.499967 61.6571 230.952)" stroke="white"/>
<rect width="40" height="40" transform="matrix(0.866044 0.499967 -0.866044 0.499967 96.2988 250.951)" stroke="white"/>
<rect width="40" height="40" transform="matrix(0.866044 0.499967 -0.866044 0.499967 130.941 270.95)" stroke="white"/>
<rect width="40" height="40" transform="matrix(0.866044 0.499967 -0.866044 0.499967 165.582 290.948)" stroke="white"/>
<rect width="40" height="40" transform="matrix(0.866044 0.499967 -0.866044 0.499967 200.224 310.947)" stroke="white"/>
<rect width="40" height="40" transform="matrix(0.866044 0.499967 -0.866044 0.499967 234.866 330.946)" stroke="white"/>
<rect width="40" height="40" transform="matrix(0.866044 0.499967 -0.866044 0.499967 269.508 350.944)" stroke="white"/>
<rect width="40" height="40" transform="matrix(0.866044 0.499967 -0.866044 0.499967 304.149 370.943)" stroke="white"/>
<rect width="40" height="40" transform="matrix(0.866044 0.499967 -0.866044 0.499967 338.791 390.942)" stroke="white"/>
<rect width="40" height="40" transform="matrix(0.866044 0.499967 -0.866044 0.499967 373.433 410.941)" stroke="white"/>
<rect width="40" height="40" transform="matrix(0.866044 0.499967 -0.866044 0.499967 408.075 430.939)" stroke="white"/>
<rect width="40" height="40" transform="matrix(0.866044 0.499967 -0.866044 0.499967 442.717 450.938)" stroke="white"/>
<rect width="40" height="40" transform="matrix(0.866044 0.499967 -0.866044 0.499967 477.358 470.937)" stroke="white"/>
<rect width="40" height="40" transform="matrix(0.866044 0.499967 -0.866044 0.499967 512 490.935)" stroke="white"/>
<rect width="40" height="40" transform="matrix(0.866044 0.499967 -0.866044 0.499967 546.642 510.934)" stroke="white"/>
<rect width="40" height="40" transform="matrix(0.866044 0.499967 -0.866044 0.499967 581.284 530.933)" stroke="white"/>
<rect width="40" height="40" transform="matrix(0.866044 0.499967 -0.866044 0.499967 615.925 550.931)" stroke="white"/>
<rect width="40" height="40" transform="matrix(0.866044 0.499967 -0.866044 0.499967 650.567 570.93)" stroke="white"/>
<rect width="40" height="40" transform="matrix(0.866044 0.499967 -0.866044 0.499967 685.209 590.929)" stroke="white"/>
<rect width="40" height="40" transform="matrix(0.866044 0.499967 -0.866044 0.499967 719.851 610.927)" stroke="white"/>
<rect width="40" height="40" transform="matrix(0.866044 0.499967 -0.866044 0.499967 754.493 630.926)" stroke="white"/>
<rect width="40" height="40" transform="matrix(0.866044 0.499967 -0.866044 0.499967 789.134 650.925)" stroke="white"/>
<rect width="40" height="40" transform="matrix(0.866044 0.499967 -0.866044 0.499967 -7.62646 230.952)" stroke="white"/>
<rect width="40" height="40" transform="matrix(0.866044 0.499967 -0.866044 0.499967 27.0153 250.951)" stroke="white"/>
<rect width="40" height="40" transform="matrix(0.866044 0.499967 -0.866044 0.499967 61.6571 270.95)" stroke="white"/>
<rect width="40" height="40" transform="matrix(0.866044 0.499967 -0.866044 0.499967 96.2989 290.948)" stroke="white"/>
<rect width="40" height="40" transform="matrix(0.866044 0.499967 -0.866044 0.499967 130.941 310.947)" stroke="white"/>
<rect width="40" height="40" transform="matrix(0.866044 0.499967 -0.866044 0.499967 165.582 330.946)" stroke="white"/>
<rect width="40" height="40" transform="matrix(0.866044 0.499967 -0.866044 0.499967 200.224 350.944)" stroke="white"/>
<rect width="40" height="40" transform="matrix(0.866044 0.499967 -0.866044 0.499967 234.866 370.943)" stroke="white"/>
<rect width="40" height="40" transform="matrix(0.866044 0.499967 -0.866044 0.499967 269.508 390.942)" stroke="white"/>
<rect width="40" height="40" transform="matrix(0.866044 0.499967 -0.866044 0.499967 304.149 410.941)" stroke="white"/>
<rect width="40" height="40" transform="matrix(0.866044 0.499967 -0.866044 0.499967 338.791 430.939)" stroke="white"/>
<rect width="40" height="40" transform="matrix(0.866044 0.499967 -0.866044 0.499967 373.433 450.938)" stroke="white"/>
<rect width="40" height="40" transform="matrix(0.866044 0.499967 -0.866044 0.499967 408.075 470.937)" stroke="white"/>
<rect width="40" height="40" transform="matrix(0.866044 0.499967 -0.866044 0.499967 442.717 490.935)" stroke="white"/>
<rect width="40" height="40" transform="matrix(0.866044 0.499967 -0.866044 0.499967 477.358 510.934)" stroke="white"/>
<rect width="40" height="40" transform="matrix(0.866044 0.499967 -0.866044 0.499967 512 530.933)" stroke="white"/>
<rect width="40" height="40" transform="matrix(0.866044 0.499967 -0.866044 0.499967 546.642 550.931)" stroke="white"/>
<rect width="40" height="40" transform="matrix(0.866044 0.499967 -0.866044 0.499967 581.284 570.93)" stroke="white"/>
<rect width="40" height="40" transform="matrix(0.866044 0.499967 -0.866044 0.499967 615.925 590.929)" stroke="white"/>
<rect width="40" height="40" transform="matrix(0.866044 0.499967 -0.866044 0.499967 650.567 610.927)" stroke="white"/>
<rect width="40" height="40" transform="matrix(0.866044 0.499967 -0.866044 0.499967 685.209 630.926)" stroke="white"/>
<rect width="40" height="40" transform="matrix(0.866044 0.499967 -0.866044 0.499967 719.851 650.925)" stroke="white"/>
<rect width="40" height="40" transform="matrix(0.866044 0.499967 -0.866044 0.499967 754.493 670.924)" stroke="white"/>
<rect width="40" height="40" transform="matrix(0.866044 0.499967 -0.866044 0.499967 789.134 690.922)" stroke="white"/>
<rect width="40" height="40" transform="matrix(0.866044 0.499967 -0.866044 0.499967 -7.62646 270.95)" stroke="white"/>
<rect width="40" height="40" transform="matrix(0.866044 0.499967 -0.866044 0.499967 27.0153 290.948)" stroke="white"/>
<rect width="40" height="40" transform="matrix(0.866044 0.499967 -0.866044 0.499967 61.6571 310.947)" stroke="white"/>
<rect width="40" height="40" transform="matrix(0.866044 0.499967 -0.866044 0.499967 96.2988 330.946)" stroke="white"/>
<rect width="40" height="40" transform="matrix(0.866044 0.499967 -0.866044 0.499967 130.941 350.944)" stroke="white"/>
<rect width="40" height="40" transform="matrix(0.866044 0.499967 -0.866044 0.499967 165.582 370.943)" stroke="white"/>
<rect width="40" height="40" transform="matrix(0.866044 0.499967 -0.866044 0.499967 200.224 390.942)" stroke="white"/>
<rect width="40" height="40" transform="matrix(0.866044 0.499967 -0.866044 0.499967 234.866 410.941)" stroke="white"/>
<rect width="40" height="40" transform="matrix(0.866044 0.499967 -0.866044 0.499967 269.508 430.939)" stroke="white"/>
<rect width="40" height="40" transform="matrix(0.866044 0.499967 -0.866044 0.499967 304.149 450.938)" stroke="white"/>
<rect width="40" height="40" transform="matrix(0.866044 0.499967 -0.866044 0.499967 338.791 470.937)" stroke="white"/>
<rect width="40" height="40" transform="matrix(0.866044 0.499967 -0.866044 0.499967 373.433 490.935)" stroke="white"/>
<rect width="40" height="40" transform="matrix(0.866044 0.499967 -0.866044 0.499967 408.075 510.934)" stroke="white"/>
<rect width="40" height="40" transform="matrix(0.866044 0.499967 -0.866044 0.499967 442.717 530.933)" stroke="white"/>
<rect width="40" height="40" transform="matrix(0.866044 0.499967 -0.866044 0.499967 477.358 550.931)" stroke="white"/>
<rect width="40" height="40" transform="matrix(0.866044 0.499967 -0.866044 0.499967 512 570.93)" stroke="white"/>
<rect width="40" height="40" transform="matrix(0.866044 0.499967 -0.866044 0.499967 546.642 590.929)" stroke="white"/>
<rect width="40" height="40" transform="matrix(0.866044 0.499967 -0.866044 0.499967 581.284 610.927)" stroke="white"/>
<rect width="40" height="40" transform="matrix(0.866044 0.499967 -0.866044 0.499967 615.925 630.926)" stroke="white"/>
<rect width="40" height="40" transform="matrix(0.866044 0.499967 -0.866044 0.499967 650.567 650.925)" stroke="white"/>
<rect width="40" height="40" transform="matrix(0.866044 0.499967 -0.866044 0.499967 685.209 670.924)" stroke="white"/>
<rect width="40" height="40" transform="matrix(0.866044 0.499967 -0.866044 0.499967 719.851 690.922)" stroke="white"/>
<rect width="40" height="40" transform="matrix(0.866044 0.499967 -0.866044 0.499967 754.493 710.921)" stroke="white"/>
<rect width="40" height="40" transform="matrix(0.866044 0.499967 -0.866044 0.499967 789.134 730.92)" stroke="white"/>
<rect width="40" height="40" transform="matrix(0.866044 0.499967 -0.866044 0.499967 -7.62646 310.947)" stroke="white"/>
<rect width="40" height="40" transform="matrix(0.866044 0.499967 -0.866044 0.499967 27.0153 330.946)" stroke="white"/>
<rect width="40" height="40" transform="matrix(0.866044 0.499967 -0.866044 0.499967 61.6571 350.944)" stroke="white"/>
<rect width="40" height="40" transform="matrix(0.866044 0.499967 -0.866044 0.499967 96.2989 370.943)" stroke="white"/>
<rect width="40" height="40" transform="matrix(0.866044 0.499967 -0.866044 0.499967 130.941 390.942)" stroke="white"/>
<rect width="40" height="40" transform="matrix(0.866044 0.499967 -0.866044 0.499967 165.582 410.941)" stroke="white"/>
<rect width="40" height="40" transform="matrix(0.866044 0.499967 -0.866044 0.499967 200.224 430.939)" stroke="white"/>
<rect width="40" height="40" transform="matrix(0.866044 0.499967 -0.866044 0.499967 234.866 450.938)" stroke="white"/>
<rect width="40" height="40" transform="matrix(0.866044 0.499967 -0.866044 0.499967 269.508 470.937)" stroke="white"/>
<rect width="40" height="40" transform="matrix(0.866044 0.499967 -0.866044 0.499967 304.149 490.935)" stroke="white"/>
<rect width="40" height="40" transform="matrix(0.866044 0.499967 -0.866044 0.499967 338.791 510.934)" stroke="white"/>
<rect width="40" height="40" transform="matrix(0.866044 0.499967 -0.866044 0.499967 373.433 530.933)" stroke="white"/>
<rect width="40" height="40" transform="matrix(0.866044 0.499967 -0.866044 0.499967 408.075 550.931)" stroke="white"/>
<rect width="40" height="40" transform="matrix(0.866044 0.499967 -0.866044 0.499967 442.717 570.93)" stroke="white"/>
<rect width="40" height="40" transform="matrix(0.866044 0.499967 -0.866044 0.499967 477.358 590.929)" stroke="white"/>
<rect width="40" height="40" transform="matrix(0.866044 0.499967 -0.866044 0.499967 512 610.927)" stroke="white"/>
<rect width="40" height="40" transform="matrix(0.866044 0.499967 -0.866044 0.499967 546.642 630.926)" stroke="white"/>
<rect width="40" height="40" transform="matrix(0.866044 0.499967 -0.866044 0.499967 581.284 650.925)" stroke="white"/>
<rect width="40" height="40" transform="matrix(0.866044 0.499967 -0.866044 0.499967 615.925 670.924)" stroke="white"/>
<rect width="40" height="40" transform="matrix(0.866044 0.499967 -0.866044 0.499967 650.567 690.922)" stroke="white"/>
<rect width="40" height="40" transform="matrix(0.866044 0.499967 -0.866044 0.499967 685.209 710.921)" stroke="white"/>
<rect width="40" height="40" transform="matrix(0.866044 0.499967 -0.866044 0.499967 719.851 730.92)" stroke="white"/>
<rect width="40" height="40" transform="matrix(0.866044 0.499967 -0.866044 0.499967 754.493 750.918)" stroke="white"/>
<rect width="40" height="40" transform="matrix(0.866044 0.499967 -0.866044 0.499967 -7.62646 350.944)" stroke="white"/>
<rect width="40" height="40" transform="matrix(0.866044 0.499967 -0.866044 0.499967 27.0153 370.943)" stroke="white"/>
<rect width="40" height="40" transform="matrix(0.866044 0.499967 -0.866044 0.499967 61.6571 390.942)" stroke="white"/>
<rect width="40" height="40" transform="matrix(0.866044 0.499967 -0.866044 0.499967 96.2989 410.941)" stroke="white"/>
<rect width="40" height="40" transform="matrix(0.866044 0.499967 -0.866044 0.499967 130.941 430.939)" stroke="white"/>
<rect width="40" height="40" transform="matrix(0.866044 0.499967 -0.866044 0.499967 165.582 450.938)" stroke="white"/>
<rect width="40" height="40" transform="matrix(0.866044 0.499967 -0.866044 0.499967 200.224 470.937)" stroke="white"/>
<rect width="40" height="40" transform="matrix(0.866044 0.499967 -0.866044 0.499967 234.866 490.935)" stroke="white"/>
<rect width="40" height="40" transform="matrix(0.866044 0.499967 -0.866044 0.499967 269.508 510.934)" stroke="white"/>
<rect width="40" height="40" transform="matrix(0.866044 0.499967 -0.866044 0.499967 304.149 530.933)" stroke="white"/>
<rect width="40" height="40" transform="matrix(0.866044 0.499967 -0.866044 0.499967 338.791 550.931)" stroke="white"/>
<rect width="40" height="40" transform="matrix(0.866044 0.499967 -0.866044 0.499967 373.433 570.93)" stroke="white"/>
<rect width="40" height="40" transform="matrix(0.866044 0.499967 -0.866044 0.499967 408.075 590.929)" stroke="white"/>
<rect width="40" height="40" transform="matrix(0.866044 0.499967 -0.866044 0.499967 442.717 610.927)" stroke="white"/>
<rect width="40" height="40" transform="matrix(0.866044 0.499967 -0.866044 0.499967 477.358 630.926)" stroke="white"/>
<rect width="40" height="40" transform="matrix(0.866044 0.499967 -0.866044 0.499967 512 650.925)" stroke="white"/>
<rect width="40" height="40" transform="matrix(0.866044 0.499967 -0.866044 0.499967 546.642 670.924)" stroke="white"/>
<rect width="40" height="40" transform="matrix(0.866044 0.499967 -0.866044 0.499967 581.284 690.922)" stroke="white"/>
<rect width="40" height="40" transform="matrix(0.866044 0.499967 -0.866044 0.499967 615.925 710.921)" stroke="white"/>
<rect width="40" height="40" transform="matrix(0.866044 0.499967 -0.866044 0.499967 650.567 730.92)" stroke="white"/>
<rect width="40" height="40" transform="matrix(0.866044 0.499967 -0.866044 0.499967 685.209 750.918)" stroke="white"/>
<rect width="40" height="40" transform="matrix(0.866044 0.499967 -0.866044 0.499967 -7.62646 390.942)" stroke="white"/>
<rect width="40" height="40" transform="matrix(0.866044 0.499967 -0.866044 0.499967 27.0153 410.941)" stroke="white"/>
<rect width="40" height="40" transform="matrix(0.866044 0.499967 -0.866044 0.499967 61.6571 430.939)" stroke="white"/>
<rect width="40" height="40" transform="matrix(0.866044 0.499967 -0.866044 0.499967 96.2989 450.938)" stroke="white"/>
<rect width="40" height="40" transform="matrix(0.866044 0.499967 -0.866044 0.499967 130.941 470.937)" stroke="white"/>
<rect width="40" height="40" transform="matrix(0.866044 0.499967 -0.866044 0.499967 165.582 490.935)" stroke="white"/>
<rect width="40" height="40" transform="matrix(0.866044 0.499967 -0.866044 0.499967 200.224 510.934)" stroke="white"/>
<rect width="40" height="40" transform="matrix(0.866044 0.499967 -0.866044 0.499967 234.866 530.933)" stroke="white"/>
<rect width="40" height="40" transform="matrix(0.866044 0.499967 -0.866044 0.499967 269.508 550.931)" stroke="white"/>
<rect width="40" height="40" transform="matrix(0.866044 0.499967 -0.866044 0.499967 304.149 570.93)" stroke="white"/>
<rect width="40" height="40" transform="matrix(0.866044 0.499967 -0.866044 0.499967 338.791 590.929)" stroke="white"/>
<rect width="40" height="40" transform="matrix(0.866044 0.499967 -0.866044 0.499967 373.433 610.927)" stroke="white"/>
<rect width="40" height="40" transform="matrix(0.866044 0.499967 -0.866044 0.499967 408.075 630.926)" stroke="white"/>
<rect width="40" height="40" transform="matrix(0.866044 0.499967 -0.866044 0.499967 442.717 650.925)" stroke="white"/>
<rect width="40" height="40" transform="matrix(0.866044 0.499967 -0.866044 0.499967 477.358 670.924)" stroke="white"/>
<rect width="40" height="40" transform="matrix(0.866044 0.499967 -0.866044 0.499967 512 690.922)" stroke="white"/>
<rect width="40" height="40" transform="matrix(0.866044 0.499967 -0.866044 0.499967 546.642 710.921)" stroke="white"/>
<rect width="40" height="40" transform="matrix(0.866044 0.499967 -0.866044 0.499967 581.284 730.92)" stroke="white"/>
<rect width="40" height="40" transform="matrix(0.866044 0.499967 -0.866044 0.499967 615.925 750.918)" stroke="white"/>
<rect width="40" height="40" transform="matrix(0.866044 0.499967 -0.866044 0.499967 -7.62646 430.939)" stroke="white"/>
<rect width="40" height="40" transform="matrix(0.866044 0.499967 -0.866044 0.499967 27.0153 450.938)" stroke="white"/>
<rect width="40" height="40" transform="matrix(0.866044 0.499967 -0.866044 0.499967 61.6571 470.937)" stroke="white"/>
<rect width="40" height="40" transform="matrix(0.866044 0.499967 -0.866044 0.499967 96.2989 490.935)" stroke="white"/>
<rect width="40" height="40" transform="matrix(0.866044 0.499967 -0.866044 0.499967 130.941 510.934)" stroke="white"/>
<rect width="40" height="40" transform="matrix(0.866044 0.499967 -0.866044 0.499967 165.582 530.933)" stroke="white"/>
<rect width="40" height="40" transform="matrix(0.866044 0.499967 -0.866044 0.499967 200.224 550.931)" stroke="white"/>
<rect width="40" height="40" transform="matrix(0.866044 0.499967 -0.866044 0.499967 234.866 570.93)" stroke="white"/>
<rect width="40" height="40" transform="matrix(0.866044 0.499967 -0.866044 0.499967 269.508 590.929)" stroke="white"/>
<rect width="40" height="40" transform="matrix(0.866044 0.499967 -0.866044 0.499967 304.149 610.927)" stroke="white"/>
<rect width="40" height="40" transform="matrix(0.866044 0.499967 -0.866044 0.499967 338.791 630.926)" stroke="white"/>
<rect width="40" height="40" transform="matrix(0.866044 0.499967 -0.866044 0.499967 373.433 650.925)" stroke="white"/>
<rect width="40" height="40" transform="matrix(0.866044 0.499967 -0.866044 0.499967 408.075 670.924)" stroke="white"/>
<rect width="40" height="40" transform="matrix(0.866044 0.499967 -0.866044 0.499967 442.717 690.922)" stroke="white"/>
<rect width="40" height="40" transform="matrix(0.866044 0.499967 -0.866044 0.499967 477.358 710.921)" stroke="white"/>
<rect width="40" height="40" transform="matrix(0.866044 0.499967 -0.866044 0.499967 512 730.92)" stroke="white"/>
<rect width="40" height="40" transform="matrix(0.866044 0.499967 -0.866044 0.499967 546.642 750.918)" stroke="white"/>
<rect width="40" height="40" transform="matrix(0.866044 0.499967 -0.866044 0.499967 -7.62646 470.937)" stroke="white"/>
<rect width="40" height="40" transform="matrix(0.866044 0.499967 -0.866044 0.499967 27.0153 490.935)" stroke="white"/>
<rect width="40" height="40" transform="matrix(0.866044 0.499967 -0.866044 0.499967 61.6571 510.934)" stroke="white"/>
<rect width="40" height="40" transform="matrix(0.866044 0.499967 -0.866044 0.499967 96.2989 530.933)" stroke="white"/>
<rect width="40" height="40" transform="matrix(0.866044 0.499967 -0.866044 0.499967 130.941 550.931)" stroke="white"/>
<rect width="40" height="40" transform="matrix(0.866044 0.499967 -0.866044 0.499967 165.582 570.93)" stroke="white"/>
<rect width="40" height="40" transform="matrix(0.866044 0.499967 -0.866044 0.499967 200.224 590.929)" stroke="white"/>
<rect width="40" height="40" transform="matrix(0.866044 0.499967 -0.866044 0.499967 234.866 610.927)" stroke="white"/>
<rect width="40" height="40" transform="matrix(0.866044 0.499967 -0.866044 0.499967 269.508 630.926)" stroke="white"/>
<rect width="40" height="40" transform="matrix(0.866044 0.499967 -0.866044 0.499967 304.149 650.925)" stroke="white"/>
<rect width="40" height="40" transform="matrix(0.866044 0.499967 -0.866044 0.499967 338.791 670.924)" stroke="white"/>
<rect width="40" height="40" transform="matrix(0.866044 0.499967 -0.866044 0.499967 373.433 690.922)" stroke="white"/>
<rect width="40" height="40" transform="matrix(0.866044 0.499967 -0.866044 0.499967 408.075 710.921)" stroke="white"/>
<rect width="40" height="40" transform="matrix(0.866044 0.499967 -0.866044 0.499967 442.717 730.92)" stroke="white"/>
<rect width="40" height="40" transform="matrix(0.866044 0.499967 -0.866044 0.499967 477.358 750.918)" stroke="white"/>
<rect width="40" height="40" transform="matrix(0.866044 0.499967 -0.866044 0.499967 -7.62646 510.934)" stroke="white"/>
<rect width="40" height="40" transform="matrix(0.866044 0.499967 -0.866044 0.499967 27.0153 530.933)" stroke="white"/>
<rect width="40" height="40" transform="matrix(0.866044 0.499967 -0.866044 0.499967 61.6571 550.931)" stroke="white"/>
<rect width="40" height="40" transform="matrix(0.866044 0.499967 -0.866044 0.499967 96.2989 570.93)" stroke="white"/>
<rect width="40" height="40" transform="matrix(0.866044 0.499967 -0.866044 0.499967 130.941 590.929)" stroke="white"/>
<rect width="40" height="40" transform="matrix(0.866044 0.499967 -0.866044 0.499967 165.582 610.927)" stroke="white"/>
<rect width="40" height="40" transform="matrix(0.866044 0.499967 -0.866044 0.499967 200.224 630.926)" stroke="white"/>
<rect width="40" height="40" transform="matrix(0.866044 0.499967 -0.866044 0.499967 234.866 650.925)" stroke="white"/>
<rect width="40" height="40" transform="matrix(0.866044 0.499967 -0.866044 0.499967 269.508 670.924)" stroke="white"/>
<rect width="40" height="40" transform="matrix(0.866044 0.499967 -0.866044 0.499967 304.149 690.922)" stroke="white"/>
<rect width="40" height="40" transform="matrix(0.866044 0.499967 -0.866044 0.499967 338.791 710.921)" stroke="white"/>
<rect width="40" height="40" transform="matrix(0.866044 0.499967 -0.866044 0.499967 373.433 730.92)" stroke="white"/>
<rect width="40" height="40" transform="matrix(0.866044 0.499967 -0.866044 0.499967 408.075 750.918)" stroke="white"/>
<rect width="40" height="40" transform="matrix(0.866044 0.499967 -0.866044 0.499967 -7.62646 550.931)" stroke="white"/>
<rect width="40" height="40" transform="matrix(0.866044 0.499967 -0.866044 0.499967 27.0153 570.93)" stroke="white"/>
<rect width="40" height="40" transform="matrix(0.866044 0.499967 -0.866044 0.499967 61.6571 590.929)" stroke="white"/>
<rect width="40" height="40" transform="matrix(0.866044 0.499967 -0.866044 0.499967 96.2989 610.927)" stroke="white"/>
<rect width="40" height="40" transform="matrix(0.866044 0.499967 -0.866044 0.499967 130.941 630.926)" stroke="white"/>
<rect width="40" height="40" transform="matrix(0.866044 0.499967 -0.866044 0.499967 165.582 650.925)" stroke="white"/>
<rect width="40" height="40" transform="matrix(0.866044 0.499967 -0.866044 0.499967 200.224 670.924)" stroke="white"/>
<rect width="40" height="40" transform="matrix(0.866044 0.499967 -0.866044 0.499967 234.866 690.922)" stroke="white"/>
<rect width="40" height="40" transform="matrix(0.866044 0.499967 -0.866044 0.499967 269.508 710.921)" stroke="white"/>
<rect width="40" height="40" transform="matrix(0.866044 0.499967 -0.866044 0.499967 304.149 730.92)" stroke="white"/>
<rect width="40" height="40" transform="matrix(0.866044 0.499967 -0.866044 0.499967 338.791 750.918)" stroke="white"/>
<rect width="40" height="40" transform="matrix(0.866044 0.499967 -0.866044 0.499967 -7.62646 590.929)" stroke="white"/>
<rect width="40" height="40" transform="matrix(0.866044 0.499967 -0.866044 0.499967 27.0153 610.927)" stroke="white"/>
<rect width="40" height="40" transform="matrix(0.866044 0.499967 -0.866044 0.499967 61.6571 630.926)" stroke="white"/>
<rect width="40" height="40" transform="matrix(0.866044 0.499967 -0.866044 0.499967 96.2989 650.925)" stroke="white"/>
<rect width="40" height="40" transform="matrix(0.866044 0.499967 -0.866044 0.499967 130.941 670.924)" stroke="white"/>
<rect width="40" height="40" transform="matrix(0.866044 0.499967 -0.866044 0.499967 165.582 690.922)" stroke="white"/>
<rect width="40" height="40" transform="matrix(0.866044 0.499967 -0.866044 0.499967 200.224 710.921)" stroke="white"/>
<rect width="40" height="40" transform="matrix(0.866044 0.499967 -0.866044 0.499967 234.866 730.92)" stroke="white"/>
<rect width="40" height="40" transform="matrix(0.866044 0.499967 -0.866044 0.499967 269.508 750.918)" stroke="white"/>
<rect width="40" height="40" transform="matrix(0.866044 0.499967 -0.866044 0.499967 -7.62646 630.926)" stroke="white"/>
<rect width="40" height="40" transform="matrix(0.866044 0.499967 -0.866044 0.499967 27.0153 650.925)" stroke="white"/>
<rect width="40" height="40" transform="matrix(0.866044 0.499967 -0.866044 0.499967 61.6571 670.924)" stroke="white"/>
<rect width="40" height="40" transform="matrix(0.866044 0.499967 -0.866044 0.499967 96.2989 690.922)" stroke="white"/>
<rect width="40" height="40" transform="matrix(0.866044 0.499967 -0.866044 0.499967 130.941 710.921)" stroke="white"/>
<rect width="40" height="40" transform="matrix(0.866044 0.499967 -0.866044 0.499967 165.582 730.92)" stroke="white"/>
<rect width="40" height="40" transform="matrix(0.866044 0.499967 -0.866044 0.499967 200.224 750.918)" stroke="white"/>
<rect width="40" height="40" transform="matrix(0.866044 0.499967 -0.866044 0.499967 -7.62646 670.924)" stroke="white"/>
<rect width="40" height="40" transform="matrix(0.866044 0.499967 -0.866044 0.499967 27.0153 690.922)" stroke="white"/>
<rect width="40" height="40" transform="matrix(0.866044 0.499967 -0.866044 0.499967 61.6571 710.921)" stroke="white"/>
<rect width="40" height="40" transform="matrix(0.866044 0.499967 -0.866044 0.499967 96.2989 730.92)" stroke="white"/>
<rect width="40" height="40" transform="matrix(0.866044 0.499967 -0.866044 0.499967 130.941 750.918)" stroke="white"/>
<rect width="40" height="40" transform="matrix(0.866044 0.499967 -0.866044 0.499967 -7.62646 710.921)" stroke="white"/>
<rect width="40" height="40" transform="matrix(0.866044 0.499967 -0.866044 0.499967 27.0153 730.92)" stroke="white"/>
<rect width="40" height="40" transform="matrix(0.866044 0.499967 -0.866044 0.499967 61.6571 750.918)" stroke="white"/>
</mask>
<g mask="url(#mask0_35_6571)">
<circle cx="512" cy="251" r="512" fill="url(#paint0_radial_35_6571)"/>
</g>
</g>
<defs>
<radialGradient id="paint0_radial_35_6571" cx="0" cy="0" r="1" gradientUnits="userSpaceOnUse" gradientTransform="translate(512 251) rotate(90) scale(512)">
<stop stop-color="white"/>
<stop offset="1" stop-color="white" stop-opacity="0"/>
</radialGradient>
<clipPath id="clip0_35_6571">
<rect width="1024" height="1024" fill="white" transform="translate(0 -261)"/>
</clipPath>
</defs>
</svg>
